<svg width="14" height="8" viewBox="0 0 14 8" fill="none" xmlns="http://www.w3.org/2000/svg">
<path d="M0.689986 8V0.727273H3.41726C3.97597 0.727273 4.44472 0.824337 4.82351 1.01847C5.20466 1.21259 5.49231 1.48485 5.68643 1.83523C5.88293 2.18324 5.98118 2.58925 5.98118 3.05327C5.98118 3.51965 5.88175 3.92448 5.68288 4.26776C5.48639 4.60866 5.19638 4.87263 4.81286 5.05966C4.42933 5.24432 3.95822 5.33665 3.3995 5.33665H1.45703V4.2429H3.22195C3.54865 4.2429 3.81617 4.19792 4.0245 4.10795C4.23284 4.01562 4.38672 3.88187 4.48615 3.70668C4.58795 3.52912 4.63885 3.31132 4.63885 3.05327C4.63885 2.79522 4.58795 2.57505 4.48615 2.39276C4.38435 2.2081 4.22929 2.06842 4.02095 1.97372C3.81262 1.87666 3.54392 1.82812 3.21484 1.82812H2.00746V8H0.689986ZM4.44709 4.70455L6.24751 8H4.77734L3.00888 4.70455H4.44709ZM8.48136 0.727273L10.3741 6.4517H10.4487L12.3379 0.727273H13.7868L11.2228 8H9.59641L7.03604 0.727273H8.48136Z" fill="#5E5ADB"/>
</svg>
