<svg width="28" height="18" viewBox="0 0 28 18" fill="none" xmlns="http://www.w3.org/2000/svg">
<path d="M4.12926 13L5.56108 4.27273H6.58381L5.15199 13H4.12926ZM0.178977 10.6648L0.34517 9.64205H6.95881L6.79261 10.6648H0.178977ZM1.06108 13L2.4929 4.27273H3.51562L2.08381 13H1.06108ZM0.68608 7.63068L0.852273 6.60795H7.46591L7.29972 7.63068H0.68608Z" fill="#171C26"/>
<path d="M18.3904 14.512C18.1903 14.7622 17.8097 14.7622 17.6096 14.512L14.6499 10.8123C14.388 10.485 14.6211 10 15.0403 10H20.9597C21.3789 10 21.612 10.485 21.3501 10.8123L18.3904 14.512Z" fill="#A1A9B8"/>
<path d="M18.3904 3.48804C18.1903 3.23784 17.8097 3.23784 17.6096 3.48804L14.6499 7.18765C14.388 7.51503 14.6211 8 15.0403 8H20.9597C21.3789 8 21.612 7.51503 21.3501 7.18765L18.3904 3.48804Z" fill="#464F60"/>
</svg>
