<svg width="14" height="14" viewBox="0 0 14 14" fill="none" xmlns="http://www.w3.org/2000/svg">
<path fill-rule="evenodd" clip-rule="evenodd" d="M6.99999 1.75C7.36243 1.75 7.65624 2.04381 7.65624 2.40625V6.34375H11.5937C11.9562 6.34375 12.25 6.63756 12.25 7C12.25 7.36244 11.9562 7.65625 11.5937 7.65625H7.65624V11.5937C7.65624 11.9562 7.36243 12.25 6.99999 12.25C6.63755 12.25 6.34374 11.9562 6.34374 11.5937V7.65625H2.40625C2.04381 7.65625 1.75 7.36244 1.75 7C1.75 6.63756 2.04381 6.34375 2.40625 6.34375H6.34374V2.40625C6.34374 2.04381 6.63755 1.75 6.99999 1.75Z" fill="#464F60"/>
</svg>
